<svg xmlns="http://www.w3.org/2000/svg" width="47" height="900" viewBox="0 0 47 900" fill="none" aria-hidden="true" focusable="false">
<path xmlns="http://www.w3.org/2000/svg" class="cls-1" d="M47.46,900H.52l.15-.12-.1-.19.35-.32c.09,0,.28.07.49.11l-.14-.31.28-.1c-.31-.2-.66-.33-.77-.72l.37-.36c.33,0,.22.56.67.49l-.28-.32a.34.34,0,0,1,.05-.14.35.35,0,0,1,.1-.11l.13,0a.26.26,0,0,1,.15,0l-.17-.2.43-.31h.56v-.08c-.12,0-.23,0-.35,0H2a1.26,1.26,0,0,1,.51-.77l.3.17.29-.27.14.12c.11-.23.21-.47.32-.69s.46-.25.53-.56h.3l.09.21s.07,0,.08,0c.11-.21.1-.51.44-.56.06,0,.09-.15.13-.23l.32.47c0-.27.06-.46,0-.56-.22-.22-.11-.4,0-.55l-.2-.44.42.12.42-.55c-.48-.06-.48-.06-.68-.39.16,0,.3,0,.44.09l.48.16a.45.45,0,0,0-.11.13v.18a.47.47,0,0,1,.22,0l0-.51.22.12v-.36l-.19.1-.21-.17.32-.12L6.14,892c.07-.48-.41-.52-.67-.8l.27-.56c0-.27-.36-.18-.43-.44s-.25-.31-.2-.52a.6.6,0,0,1-.22-.05.14.14,0,0,1,0-.09l.3-.81a.59.59,0,0,0-.09-.18,1.79,1.79,0,0,0,.37-.06v-.15a5,5,0,0,0-.63,0l.36-.55A1,1,0,0,1,5,887.8c-.06,0,0-.08,0-.09l.51-.43L4.87,887v-.7h.21l.06.45.2-.37-.12-.21h.57L5.64,886l.35-.21v-.6l.4-.56,1.28-.36-.19-.19-.27.15L7.12,884a4.1,4.1,0,0,0,.57-.08l-.18-.32.18-.38a4.56,4.56,0,0,0,.57,0L7.91,883l-.06-.55-.13.3H7.25v-.06a2.51,2.51,0,0,0,.39-.07v-.35l-.46-.22.33-.28-.4-.38.2-.25.28.28.17-.29c-.06-.2-.27-.31-.49-.4l0-.31a1,1,0,0,1-.34,0,.9.9,0,0,1,0-.46.88.88,0,0,1,.22-.4l-.78.15c0-.14,0-.23.1-.27l.42-.15.11.1.12-.26c.33.3.35.82.81,1l-.23.14v.55l.06,0,.09-.21.47-.15a.76.76,0,0,1-.12-.55,1.35,1.35,0,0,1-.55-.51,1.22,1.22,0,0,1-.17-.72l.57.69c.33-.1.69-.13.92-.44l-.25-.47.16-.56H8.75l-.11.24H8.42a2.16,2.16,0,0,0,.2-.86c0-.32-.12-.62-.19-1,.18-.1.48,0,.52-.33l-.42-.31.15-.23-.1-.11.26-.46-.17-.23.26-.31-.3-.42-.42.63v-.33l-.28-.13.11-.12-.14-.69.33-.42-.29-.14.25-.27-.4-.19-.19.14-.27-.38.43.08.15-.28-.18-.07-.16-.3.15-.16.23.13.27-.24-.13-.22.13-.24-.64-.22c.08-.15.15-.3.23-.44s.18-.27.25-.38l.57.13-.14-.24.09-.1-.42-.67-.24.28c-.07-.34-.07-.34.11-.93l.23.23.37-.5-.41.09-.42-.25.23-.47.29.15c.21-.06.51.13.73-.13.25.09.11-.27.33-.26a1.09,1.09,0,0,0,.49-.19,4.56,4.56,0,0,0,.39-.27l-.21-.4-.14.12c-.35,0-.25-.31-.38-.55l-.08.61-.39-.27a1,1,0,0,0,.25,0c.06,0,0-.07,0-.08s-.27-.27-.22-.47l-.41-.24.34-.16a2.36,2.36,0,0,1,.38.11l.22-.46c-.27,0-.26.18-.31.33L9,864.79l.29-.09L9,864.56c0-.44,0-.43.16-.7l.31.42.21-.15a.41.41,0,0,0,.12.11l.33.1c-.06-.37-.39-.38-.56-.47l-.36-.68.24-.11L9,862.27c.12-.11,0-.28,0-.42a.64.64,0,0,0,0-.47l-.13.27-.3-.18v-.68l.36-.25.11.09v-.23a2.58,2.58,0,0,1-.37-.06l.07-.12-.17-1.58a2.81,2.81,0,0,0,.57,0c-.44-.38-.31-.91-.72-1.31.34,0,.56,0,.88,0L9,855.9a.34.34,0,0,1-.15,0l-.16-.32c0-.2.26-.28.37-.47a2.75,2.75,0,0,1,.57-.56l-.17-.24.33-.22-.12-.56-.23-.23.2-.43c.32,0,.39.34.6.63.09-.39.3-.64.2-1a1,1,0,0,1-.65.17,1.06,1.06,0,0,1-.63-.25l.27-.09L9.3,852h.53l0-.09-.42-.22.56-.12a.74.74,0,0,1-.4-.27.7.7,0,0,1-.16-.46c0-.33-.1-.65-.17-1L9,849.58v-.38l.43-.43-.44-.46.25-.09v-.93l.38-.22,0-.4.07.3H10v-.25l-.19.15-.06-.23a2.44,2.44,0,0,0,.39-.06L10,846l-.19,0v-.46l.21.09,0-.21a2.43,2.43,0,0,0,.3,0c.05-.46-.38-.88-.08-1.37-.17-.2-.17-.2-.45-.25l-.24-.33a.13.13,0,0,0,.08,0l.33-.33c.35,0,.57.46,1.08.47a1.54,1.54,0,0,0-.28-.34c-.17-.16.23-.28,0-.47s.11-.34.06-.41-.07-.34-.06-.52l.26.09-.29-.3-.08.06c-.14-.25.14-.3.2-.44l-.36-.21.14-.27a3,3,0,0,0-.31-.15l.31-.95-.28-.31c0-.2.25-.33.07-.56s0-.35.09-.56a2.3,2.3,0,0,1-.42-.07l.19-.59h.31v-.45L10.4,837v-.47l.19.13.07-.21a2.44,2.44,0,0,1-.39-.06v-.56l.19-.2.08.38h.31l-.37-1a1.38,1.38,0,0,0,.35,0v-.37l-.31.12v-.31l.47-.21.07-.21c.21,0,.25,0,.38.48.19-.19.48.24.64-.11l.14.13s.07-.09.06-.1a5.84,5.84,0,0,0-.92-.72c.36-.07.56-.34.8-.49v-.27l-.24-.08v-.79c.25,0,.17.24.28.3a2.83,2.83,0,0,0,.34-.35,3.58,3.58,0,0,0,.24-.48h-.34l0,.32H12.3c0-.2-.18-.21-.31-.28.2-.36.57-.25.8-.33v-.16c-.26-.26-.57.34-.82-.06l-.14.13-.2-.21.32-.59.17.36.34-.46-.43-.32a1.22,1.22,0,0,1,.21-.48,1.15,1.15,0,0,1,.41-.35l0-.32.23.13v-.75l.33.33.1-.07.32.15-.22.37.31-.14.12.1.3-.35a2.93,2.93,0,0,1-.35,0l-.05-.38-.3.12-.11-.22-.12.11-.1-.31-.14.06a3.07,3.07,0,0,0,.25-.26,2,2,0,0,0,.15-.33l.2.35a1.09,1.09,0,0,0,.46-.33,3,3,0,0,1-.36-.06l-.05-.21-.71-.19.13-.32h-.52l0-.09.28-.1.68.22-.12-.16.3-.37.05.35h.11l.06-.47a4.72,4.72,0,0,0,.62,0v-.53l.26.23-.12-.47.23-.46v.73H15l.18-.89a2,2,0,0,1-.45-.8,2,2,0,0,1,0-.91h.56l.05-.08a1.69,1.69,0,0,0-.24-.12l0-.43h-.43l-.15-.15.13-.31.72-.34-.13-.16a2,2,0,0,0,.35-.05l0,0c-.07-.11-.32,0-.26-.26l-.05-.05-.14.12-.56-.56-.06-.37-.15.3H14a.89.89,0,0,1,.09-.39.82.82,0,0,1,.26-.32l-.18-.32.32-.19-.23-.27L14,819l.18-.44-.11-.12.28-.81-.52-.37-.28.16-.22-.19a.51.51,0,0,1,0-.3.49.49,0,0,1,.17-.25l.26.23.07,0-.14-.35.11-.19c-.13-.1-.36,0-.43-.18a.37.37,0,0,0-.11-.19.36.36,0,0,0-.2-.11l.12-.12-.23-.23.24-.44-.18-.49-.23-.1.29-.1-.29-.63.28-.13-.39-.24.17-.92.2-.08s0-.08-.05-.07h-.11l-.1,0-.07-.09,0-.1c0-.34-.26-.56-.36-.82l.34-.21-.16-.43.24.19.18-.33-.42-.26-.21.12a1.64,1.64,0,0,1-.24-.19l.15-.21-.31-.35.16-.43L12,809a.68.68,0,0,1,.14-.31.71.71,0,0,1,.27-.21.77.77,0,0,0-.22-.29,1,1,0,0,0-.31-.18c-.23-.1-.46-.22-.7-.31s-.45-.12-.75-.2l-.13-.62-.19.33-.5-.33.14-.16a1.39,1.39,0,0,1-.39,0c-.29-.14-.53-.27-.77-.4a.77.77,0,0,0-.1-.59l.11-.48-.36-.71.13-.74-.25.13c-.13-.26.2-.29.23-.52l-.17-.2-.3.12c0-.08,0-.11,0-.15.07-.34.43-.42.62-.67v-.39l-.56-.41-.13.26-.1-.27-.17.13-.18-.29.2-.55.25.3.45-.08L8,800.72l-.44-.32a2.12,2.12,0,0,0-.57.07,2.29,2.29,0,0,0-.12-.37c-.07-.11.16-.25-.11-.33a1.74,1.74,0,0,0,.42-.08v-.32l-.29.12c-.09-.47,0-.63.3-.83L7,798.49l-.39.27-.21-.62.44-.09-.57-.44.17-.26-.13-.21.14-.48c-.36-.19-.53-.56-.89-.83l-.75.11c-.23-.32.33-.45.22-.75l-.48-.59H4.29v-.45l-1-.2-.16-.29.25-.17v-.34l-.47,0c-.06-.24-.3-.45-.13-.7l.44.55v-.55l-.56-.31-.32-.64a2.1,2.1,0,0,0,.13-.26,2,2,0,0,0,0-.35L3,791l.22-.79h.59l-.2-.35-.42.17.16-.42H2.89L3,790l-.41.24.12-.41-.6-1.16h.35l.1.26.34-.5-.17-.84-.46-.21.14-.21-.27-.31.24-.12v-.18a1.33,1.33,0,0,0-.35.08l0-.34-.31-.4v-.25l-.25-.27.16-.34a4.19,4.19,0,0,1,.56.08c.11-.33-.44-.14-.34-.52l.1-.12.57.1.14.3v-.56l-.6-.22.13-.13L2,783.84l.11-.26L2,783.2l.8.36c-.06-.37-.43-.49-.48-.85l.17-.18.13.1c.14-.06.12-.16-.18-.91l.33-.18.14.1.09-.27.17.34,0-.34-.64-.72h-.2L2,780.17l-.19.36-.1-.06a2.13,2.13,0,0,0,.38-.69,3.19,3.19,0,0,1,.29-.8l-.39-.25v-.85l-.35.47-.17-.7.34-.68.08.23H2c-.13-.37-.06-.8-.45-1l-.05-.73-.1.3-.37-.32v-.47l.51-.19-.15-.38.65-.24C2,774,2,774,1.72,773.92c-.13-.25,0-.37.2-.51l.23.16c0-.06.05-.12,0-.17A3.81,3.81,0,0,0,2,773l-.4.5H1.56l.15-.56.2-.06v-.33l-.4.15c.35-.37.52-.42.91-.32V772a.77.77,0,0,1-.29-.22.84.84,0,0,1-.16-.33l.27.14.11-.24c.14,0,.29.06.47.1-.22-.39-.08-.75-.13-1.07l.68-.37-.16-.52,0,0,.12.08c.25,0,.32-.25.43-.37l-.27-.52.05,0L2.89,768l.28-.27L3,767.38l-.35-.06.2-.68.07.56.23-.11h.3c-.08-.09-.14-.13-.14-.17v-.67l.24-.17c-.09-.34.12-.6.24-.86l-.5-.56c.14-.13.3-.25.46-.39a7.49,7.49,0,0,0-.68-2L3.2,762,3,762l-.28-1.16.31-.47.11.33.11-.34-.07-.1.43-.41.16.28h.18l-.14-.34c.22,0,.42,0,.67,0l-.08-.52.3-.19h-.8l.07-.09-.19-.19.39.15.53-.26.5.13.06-.09-.17-.17c-.1-.11-.26,0-.37-.08a2.48,2.48,0,0,1-.4-.26l-.4-.29c.22-.26.41,0,.57,0l.36-.35-.06-.17-.42.19.17-.77-.18-.18c-.06-1-.06-1,.22-1.52l-.15-.17.53-.9c-.13-.19-.27-.41-.42-.61s0-.48.12-.85l-.43.35A5,5,0,0,0,4,752.1c0-.11-.17-.19-.29-.32l-.11.3L3.31,752v-.37L3,751.29l.37-.21-.36-.14,0-.34-.14.1-.46-.41.12-.13L2,749.92l.08-.27-.24-.6.51-.23c0-.12.16-.3.12-.43s-.12-.26,0-.38,0-.48.35-.56l-.13-.75.81.31.06-.1-.36-.27-.1-.36.5-.38a1.27,1.27,0,0,1-.25-.49,1.45,1.45,0,0,1,0-.55H2.89l.35.18-.2.33c-.08-.09-.2-.16-.2-.23a1.09,1.09,0,0,0-.24-.73.66.66,0,0,0,.12-.38.67.67,0,0,0-.12-.39l.23-.08v-.42l.26-.09L3,742.84l.27-.32c-.05,0-.1-.06-.15,0l-.57.22c-.11-.25.21-.28.24-.44s0-.59-.19-.74-.16-.44-.22-.69l-.24.22.16-.91.2-.2-.12-.35.53-.44v-.36l-.23-.22c.23-.38.57-.74.18-1.21l-.14.11-.2-.18.41-.27-.25-.5c.22-.15.28-.5.65-.56-.25-.29-.44.07-.68,0,0-.31.43-.29.49-.56l-.34-.23v-.88l.35-.44L3,733.49l.28-.18L3,733.2l.7-1.18-.14,0,.32-.32v-.78l.31.15.09-.39.34.13-.13-.62-.37-.48.28-.12-.16-.32c.09-.22.25-.26.49-.24v-.44l.26-.08v-.34l-.24.11c0-.32.3-.4.39-.56l.6-.23L5,727.05a2.49,2.49,0,0,0,.29-.43c.06-.14-.06-.34.21-.46l-.49-.4.49-.4,0-.52-.34-.18.57-.06.46-.32a1.37,1.37,0,0,1-.35-.08c-.1,0-.06-.06-.09-.1l.09-.55.26-.13-.15-.27.45-.27.23.22s.07,0,.07,0a1.2,1.2,0,0,1,.37-.61c.11-.11.21-.24.34-.39l-1.06-.17,0-.37c-.11,0-.22,0-.37,0a1.88,1.88,0,0,0-.23-1.16c-.07-.1,0-.27.11-.5l-.49-.47c.21-.37.05-.77.12-1.18l.48-.32v-.42l.51-.42H6.6l.19-1,.29-.14.15.09,0-.06L7,715.53l.5-.22v-.16l-.31.14-.11-.38.9-.8V714l-.19.11,0-.21a3.88,3.88,0,0,0,.44,0l.31-.41.23.18c0-.06.07-.13,0-.16a.63.63,0,0,0-.21-.22c-.14-.11-.29-.2-.36-.25l-.15-.5.82-.17c0-.32-.57-.28-.62-.64.52-.2.7.39,1.14.44l-.13-.83.4-.23-.25-.19-.27-.22.17-.34L9,710.17c.4-.2.88-.23,1.21-.55l.15.32a1.21,1.21,0,0,0-.09-.93l.18-.56.23.19c.27.2.5,0,.74-.13l-.31-.63c-.06,0-.13,0-.2-.06l.18-.32a2.6,2.6,0,0,0,.44,0l-.16-.31a1.54,1.54,0,0,0,.35-.07l.27-.32a1.11,1.11,0,0,1-.07-.16,1.71,1.71,0,0,1,0-.32c.36-.08.32-.43.43-.67a.41.41,0,0,0,.21,0v-.42l.26-.1-.26-.13c.26-.21.26-.21.6-.07l.05-.38.57-.3v-.41l-.4-.26.24-.3.09.26c.27-.09.26-.43.57-.55s.17-.5.17-.74c.22-.37.22-.37.67-.56l.21.13c.06-.43-.29-.6-.43-.92l-.13.33-.13-.29.07-.15-.6-.46-.11.12-.15-.48c.38-.22.31-.68.46-1,.05-.12,0-.29-.05-.46h.44l0,.73a1.78,1.78,0,0,0,.06-1c0-.07-.06-.09,0-.19s.11-.34.05-.4c-.31-.27-.15-.68-.34-1a.45.45,0,0,1,.05-.33c0-.11.05-.18-.09-.46.25,0,.57,0,.53-.43,0-.07.12-.23.18-.22.28,0,.52-.28.81-.09a1.66,1.66,0,0,0,.29.1l.42-.29-.54-.14c-.13-.23.1-.19.25-.28l-.23-.09L16,693.9c.25,0,.44,0,.7,0l-.44-.32.24-.35.28.19c0-.11,0-.24,0-.24-.25,0-.34-.26-.57-.47l.57-.09-.1-.64.48-.42a2.18,2.18,0,0,1,.41.15c-.17-.29-.26-.45-.35-.62s-.27-.36-.24-.51a6,6,0,0,1,0-.6c0-.07.12-.14.19-.23l.1.26.5-.31-.15-.27.27-.09a.16.16,0,0,1,.11.06c-.05-.3.08-.56-.13-.83.25-.22,0-.52.17-.81l.15.27a.36.36,0,0,0,.21-.11.49.49,0,0,0,.11-.2c0-.12.24-.17.38-.25l-.12-.12.14-.3a1.31,1.31,0,0,0,.34-.09,1.52,1.52,0,0,0,.23-.33l-.43.1-.12-.24-.27.15-.23-.35c-.19,0-.43,0-.45-.38h.48l.05-.09-.33-.18.45-.29-.14-.16c.26-.14.31.14.47.2l.2-.28L19,685l-.16.08-.31-.15.11-.13-.12-.15.38-.24v-.29l-.64-.33.17-.45-.57.34.16-.28-.31-.12a2.14,2.14,0,0,0,.43-.07v-.3l-.65-.37c.18-.36.56-.43.81-.63l-.15-.47.42-.28-.16-.33.54-.41-.56-.19c.13-.19.14-.42.39-.44l-.28-.29h.88l.22.35c.17-.21,0-.37-.14-.68a1.56,1.56,0,0,0,.25.17h.19a.88.88,0,0,0-.1-.36,1,1,0,0,0-.24-.29l.61-.51v-.46h-.07l-.07.42-.18-.34c0-.26,0-.5.11-.63s.06-.36.13-.52.53-.35.67-.66a.7.7,0,0,0,.28,0l.12-.43-.36-.25L21,675l-.17-.5a.24.24,0,0,1-.17-.05.09.09,0,0,1,0-.11,2.32,2.32,0,0,1,.25-.59,10,10,0,0,0,.51-1c.19-.36.4-.71.61-1.08a2.4,2.4,0,0,1-.38-.06l.13-.33h-.33v-.55l.17-.24.27.17,0-.43-.38-.37.14-.19-.49-.41.34-.14-.09-.12.57-.79.4.12.2-1,.2-.07-.17-.35-.14.13-.31-.6v-.51l.31-.29c.18.22.31.1.45-.1-.2,0-.4,0-.64-.06v-.55h-.07l-.11.23-.18-.32.26-.26c-.49,0-.31-.5-.65-.69a.71.71,0,0,0,.06.28c.15.2,0,.34-.16.52v-.27a3.53,3.53,0,0,0,0-.65l-.21.18v-.3c.09-.28.54-.19.51-.59a.77.77,0,0,1-.25.1h-.34c-.09-.16,0-.44-.31-.5a3.92,3.92,0,0,1-.6-.23V662l.29-.11-.34-.18.22-.31-.33-.12-.05,0-.26-.4-.12.33a2,2,0,0,0-.07-.23,1,1,0,0,0-.14-.15,2.2,2.2,0,0,0,.37-.06c0-.37-.45-.41-.57-.67l.66-.17-.53-.47.37-.24v-.19l-.67-.68.19-.33c-.12-.16-.33-.29-.3-.56s-.44-.06-.33-.44l.37.14-.17-.39c-.2.21-.31-.08-.56.09l.16-.59-.28-.67.32-.12-.09-.55.2-.19v-.51l-.3-.31a1.34,1.34,0,0,0,.16-.55,1.37,1.37,0,0,0-.09-.57l-.05.63h-.07v-.72l.49-.43-.14-.18.48-.38-.49-.23.39-.27a2.74,2.74,0,0,1-.48-.1l.57-.27.15.24a2,2,0,0,1,.1.26l.06-.21a1.11,1.11,0,0,1,.1-.69h-.2l-.08.48-.27-.59a.89.89,0,0,1-.33-.06c.31-.3.42-.75.91-.88l0-.43-.4.38c-.18-.21.08-.56-.27-.62l-.31.34,0,.27-.19-.16-.06.36h-.09l-.08-.55.26-.26.12.11.57-.52.16-.38-.39.14-.15-.3.07-.09-.09-.29a2,2,0,0,1,0-.35l-.32.3-.13-.14c-.17-.25,0-.45.1-.68l.41-.24-.31-.16.17-.85-.64.34c-.16-.09-.24-.16-.39-.25a1.68,1.68,0,0,0,.34-.2,1.47,1.47,0,0,0,.14-.28l.47.09V645a.76.76,0,0,1-.22-.09l-.05-.44h-.34l-.2-.51-.14.11-.11-.24-.11.09-1-.42V643A.78.78,0,0,1,16,643c.12-.25.17-.48-.19-.61l-.19.13-.06-.2a1.92,1.92,0,0,0,.38-.07v-.64l.38-.38.47.25c.32-.34.25-.86.57-1.27l-.22-.07v-.31l-.42-.36.18-.29-.41-.47c.12-.36-.24-.55-.37-.88l.23-.62a3.18,3.18,0,0,1-.47-.06c-.07-.3.13-.5.29-.72l.17.15.32-.22a.55.55,0,0,1-.14-.37.57.57,0,0,1,.14-.37l-.43-.15,0-.12c.19,0,.35-.25.56-.06l.21-.2-.14-.24.2-.2-.18-.69.11,0-.39-.4-.11.22V633c.25,0,.49-.34.81-.06l.17-.51c-.26-.2,0-.59-.25-.85a1.52,1.52,0,0,1,.15-.5,1.26,1.26,0,0,1,.33-.4l-.59.1a3.54,3.54,0,0,1,.3-1.19l.15.13.25-.43-.29.15s-.05-.09,0-.11a2.92,2.92,0,0,0,.21-.28,2.7,2.7,0,0,0,.08-.39l.29.17c0-.05.06-.15,0-.16l-.83-.56.31.7h-.3c-.29-.3-.14-.61,0-1h.26l.35-.38-.09-.64.11-.72-.3-.22.38-.74-.21-.38c0-.28.31-.32.46-.49l-.15-.27.28-.09v-.26l.67-.63-.26-.19-.19.27-.33-.49.09-.09-.23-.43a.4.4,0,0,0,.2,0l.08-.22.45.23v-.41l.77-.75v-.65c.21,0,.23,0,.33.2l.12-.25.24.17.18-.5c-.32-.32.26-.67,0-1h-.61l.22-.83.28.62a4.34,4.34,0,0,0,.06-.88l.37-.25L21,617c.28,0,.21-.33.4-.43l-.09-.09-.18.11L21,616c.1-.08.19-.27.46-.3v-.47l.29.15.35-.69a.81.81,0,0,1-.09-.48.94.94,0,0,1,.07-.3c.06-.12.06-.26.11-.38s-.08-.24-.17-.46a4.18,4.18,0,0,0,1,0c-.15-.21-.14-.51-.49-.58l-.08.26-.35-.17v-.27l-.85-.53-.15.12v-.6h.06l.05.18,0,.22.23-.42-.5-.54.13-.45a.88.88,0,0,0,.25-.11.86.86,0,0,1-.23-.06c-.05-.48-.51-.68-.81-1.06v-.65l-.62-.28v-.84l.34-.5.19-1.2-.4.15,0-.17.33-.16.28.15v-.79l.35-.56.11.27.34-.87c.3.15.47-.05.72-.07l.24.08-.11-.68.37.14.08-.2.19.09,0-.2a2,2,0,0,1-.39-.07l.42-.49-.06-.09-.21.12-.35-.16-.3-.89.49-.35-.36-.15.1-.13-.13-.22.41-.43c-.08,0-.15-.06-.27-.1l.39-.39v-.24l-.56-.32.1-.56-.07,0-.2.29-.22.33c-.24-.18-.25-.2-.3-.46l-.32-.16s-.07.07-.05,0l-.32-.12V598l.32-.12.19.1a.53.53,0,0,0,.05-.2.79.79,0,0,0-.06-.22l-.09-.22c-.22,0-.47,0-.48-.39.24,0,.48-.11.69.09l.32-.16a.43.43,0,0,1-.11-.12,1.55,1.55,0,0,1,0-.21,2.15,2.15,0,0,0-.44.09s0-.06,0-.08c.13-.18.11-.48.44-.51,0,0,.08-.15.17-.34v.7h.11l.06-.6.25.13-.16-.52c.11-.26.54-.35.34-.74l-.13.1c0-.17,0-.18.12-.35l.11.1.43-.3.1-.52-.82-.19.34-.48a4.86,4.86,0,0,1,.56.1l-.27-.44.62-.55L23,592l-.18.15a.59.59,0,0,1,.06-.45.63.63,0,0,1,.34-.3,1.8,1.8,0,0,1-.51-.87l.11-.13c-.11-.2-.42-.31-.39-.72l.31.39.56-.12.19-.67v.13a.83.83,0,0,1,.2.32l0,.08.07,0c.05,0,.09,0,.1,0s.17-.32.29-.34a.27.27,0,0,0,.21-.29l.35.19v-.41a1.4,1.4,0,0,1-.39,0c.1-.4-.17-.76-.13-1.17s0-.83,0-1.2l-.15-.29c.14-.12.15,0,.21,0,0-.3,0-.3-.79-.65l-.12-.44.16-.31h.05l0-.06c.32-.09.49-.42.67-.72l-.18-.18h-.42l-.06-.12v0a1.36,1.36,0,0,1,.12-.39l.23-.15.45.34.09.1,0,0-.1-.09c0-.32-.28-.51-.43-.76l-.14.13,0,0c0-.17.15-.35-.07-.47l.23-.23-.12-.26h.07l.36-.23,1-.15,0-.09a2.39,2.39,0,0,0-.32-.16l.05-.08-.26-.8c.19,0,.42-.11.68.12l.06-.51H26l-1.32-.75-.07-.16A.77.77,0,0,0,25,579L24.6,579l-.06-.16,0-.08-.12-.22-.05-.25c.08,0,.17,0,.26,0l-.1-.2.18,0,.17.35v-.4l-.27-.28.4-.25-.29-.1.24-1h-.07l.49-.65-.12-.11.29-.33-.26-.18c0-.12-.17-.25-.16-.43l.09,0v-.07l.22.11-.15-.37v0a.34.34,0,0,1,.14,0l.17-.15-.2-.13.17-.44,1-.45.16.33.08-.26h.45l.06-.38.21.11v-.34c.52,0,.29-.55.64-.7l-.09-.12.16-.33.16.14,0-.35.87-.36-.48-.09v-.29l.31-.16.11.1.21-.2-.8-.46.57-.23-.13-.15a.55.55,0,0,1,.14-.26.63.63,0,0,1,.24-.16l-.4-.61a3.7,3.7,0,0,0,.32-.26l.09.56h.07a1.07,1.07,0,0,1,0-.51.43.43,0,0,0,.09-.22.34.34,0,0,0-.07-.22l0,0a1.27,1.27,0,0,0,.13-.32,1.69,1.69,0,0,1,.08-.5l.09.36.2-.07c-.05-.23.21-.15.26-.24l-.18-.33.44.17-.08-.38.1-.16-.29-.52.36.12c.12,0,.09-.1.15-.15v-.42c-.07,0-.13,0-.25-.06l.14-.17-.17-.52.48-.23a.58.58,0,0,0,0-.43.64.64,0,0,0-.32-.31V563l.44-.16-.08-.43-.12-.48c.16-.1.46,0,.51-.36l-.21-.09v-.15a3.72,3.72,0,0,1,.43-.61,2.55,2.55,0,0,1,.56-.36l-.49-.39.39-.56-.12-.41.43-.23-.5-.11-.1-.48-.09.49h-.31l-.06-.17.27-.12-.08-.6.3.14.14-.18c-.13-.15-.2-.33,0-.48l-.26-.36a.05.05,0,0,0,.05,0s0,0,0,0l.26.12.12-.27-.12-.24.37-.29a1.78,1.78,0,0,0-.07-.39c-.09-.23-.27-.44-.15-.74.57.1.47-.56.8-.67l.19-.56-.4-.08.15-.2-.25-.38-.06-.3.19-.37-.26-.2.1-.09,0,0-.09.1h-.14l0,0,.14-.48-.3-.19c.06-.07.08-.14.1-.14.22,0,.47.05.57-.24-.05-.3-.35-.21-.51-.31v-.17a3.22,3.22,0,0,0,.35-.06l-.13-.17.38-.24V550l.09-.07.35.18.29-.21h-.47c.05-.15.11-.26.16-.39H34v-.34l.42-.08-.13-.55.36,0v-.24l-.17.11-.25-.12.38-.37.1.25.07-.06v.38l.34.17.13-.29-.12-.43.22.28.29-.15.06.37.57-.16-.09-.42.29-.1-.15-.29.15-.48-.23-.07-.18-1-.25,0v-.35l.12-.08.14.07.41-.4.69.3.23-.4.17.28a1.69,1.69,0,0,1,.28-.12h.39l-.77-.6c.49,0,.85-.1,1,.33h.37l-.51-1H38l.23-.45-.23-.25.29-.14c-.12-.2-.34-.25-.56-.36l.25-.08v-.71l-.32,0-.08-.23h-.83v-.38c.24-.06.08-.25.13-.38s.1-.13.13-.21l.2,0-.18,0,.1-.31h.07c.34,0,.27.33.42.56v-.64l-.23-.18h-.06l0-.13-.09-.09a.49.49,0,0,0,.11-.2L37,539l.35-.38-.17-.09h.29v-.08l-.22-.09c0-.2-.07-.4-.09-.61a.79.79,0,0,0,0-.43.75.75,0,0,1,.09-.29l-.3-.35.14-.27.1-.09,0,0-.09.1-.16-.19a.74.74,0,0,0,.31-.05c-.45-.26-.38-.71-.57-1.06l.08-.23.62-.25-.08-.06v-.05a.38.38,0,0,1-.18-.09l-.08,0,.15-.3a1.55,1.55,0,0,0-.36.08v-.24l.39-.42-.27-.13-.12.06,0-.19a1.14,1.14,0,0,0,.3-.1l-.31-.16.38-.74-.13-.14.51-.56v-.47l-.16.12c-.56-.1-.48-.71-.93-1l.42-.33.18.37.23-.56.52.14c0-.19.33-.33.07-.56l.2-.61-.13-.33.33-.35-.14-.18c.07-.2.23-.22.47-.19v.48l.13,0c.26-.25.23-.6.4-.86l-.08-.08,0,0-.13.11v-.38l.72-.2-.27-.72.4.18a1.23,1.23,0,0,1,0-.2c-.27-.08-.28-.39-.53-.53l.31-.11-.27-.33v-.15a.62.62,0,0,0-.08-.33l-.1.24a.51.51,0,0,1-.23,0l.18-.2H38.7l-.36-.92.43-.26v-.25l.36-.36h0l.3-.55-.45-.84-.33-.2.31-.14-.17-.34.28-.31a1.34,1.34,0,0,1-.11-.25c.13-.1,0-.14,0-.22a.92.92,0,0,1-.09-.23l.1-.39c-.16-.08-.27-.15-.39-.22a.64.64,0,0,0,0-.7l.29-.26,0-.1a.71.71,0,0,0,.14-.1s0-.15,0-.23a.21.21,0,0,0,.11,0,.24.24,0,0,0,.09-.08.37.37,0,0,0,0-.11.24.24,0,0,0,0-.12h.16l-.18-.09h-.07l-.22-.11a3.56,3.56,0,0,0,.41-.08c-.41-.14-.81-.14-.91-.56h-.14l.17-.14c-.23-.17-.14-.35-.14-.6l.3.4.07,0-.07-.44.28-.14.07.23c.12-.05.17-.15.28-.24s.29,0,.46,0l0-.24-.16.12-.07-.06c-.13-.14,0-.32-.1-.48a.42.42,0,0,1,0-.27.47.47,0,0,1,.11-.25c.09-.12,0-.36,0-.55a1.87,1.87,0,0,1,.08-.32l-.25-.63.08,0,.17.11,0-.3.12.12v-.4a1.75,1.75,0,0,1-.36-.07v-.33h.47v-1.21l-.19,0-.14-.45.22-.1v.43h.24a2,2,0,0,1-.1-.63,2.5,2.5,0,0,1,.35-.56,1.42,1.42,0,0,1-.34,0v.35a.66.66,0,0,0-.27,0l.17-.4-.57.08-.16-.15.43-.84L38.9,508v-.1h-.16l.43-.1-.35-.41v-.24a2.5,2.5,0,0,0-.24.16l-.09-.08.28-.38-.46-.13-.08.19-.1-.05.48-.45c-.07-.2-.1-.35-.25-.37a2,2,0,0,1,.5-.31l-.14-.3c.2-.3.12-.76.47-1,0-.13-.12-.29-.08-.37a.28.28,0,0,0,.06-.18.27.27,0,0,0-.06-.17l.27-.51-.2-.39-.27.13-.22-.21-.44-.1.61-.42h-.32l-.15-.33.07,0a1,1,0,0,1,.23.07l.57-.4-.16-.32.37-.38.24.14c0-.06,0-.14,0-.18a4.35,4.35,0,0,0-.34-.41h.57l0,.3c.05,0,.45-.28.63-.56a2,2,0,0,1-.39-.07v-.34a1.29,1.29,0,0,1,.35.09v-.45l-.22.12-.18-.65.22-.22.17.15,0-.56.31.12.19-.18L41,497.8l.16-.16c.16.19.31,0,.46,0s.2-.39.37-.57a3.79,3.79,0,0,0,.44-.14l.18-1-.11-.08.06,0,.09.11c.12-.07.25-.13.4-.2l-.18-.4a4.52,4.52,0,0,0,.53-.06v-.71h-.75l-.07-.44-.44.29-.77-.76-.08.1-.61-.37.19-.42c.24-.13.57-.15.63-.51.11-.1.33.08.35-.15l.24-.14a1.73,1.73,0,0,1-.1-.24.88.88,0,0,1,0-.23l-.39,0c0-.08,0-.15-.15-.16a1.1,1.1,0,0,1,.44-.07l-.16-.2.53-.37-.16-.36c.21-.18.36,0,.52,0v-.6l-.08,0-.1.29.08.09h-.39v-.46l.16-.16.11.08.33-.14c0-.12.13-.28-.1-.32a.61.61,0,0,1,0-.27.6.6,0,0,1,.12-.24l-.13-.13-.34-.23-.23.31-.25-.07h-.3c0-.24-.07-.44.14-.59l.13.2h.57v-.36a1.23,1.23,0,0,0,.26.12h.32a.78.78,0,0,0,.16-.28.75.75,0,0,0,0-.33s-.07-.06-.08-.09a1.66,1.66,0,0,1-.16-.21c-.13,0-.25.06-.38.07a2.53,2.53,0,0,1-.39,0l0-.26.21.17v-.55l.21.1.1-.1.3.28.28-.66.1-.09,0,0-.09.1-.42-.2-.48.1.45-.52.12.1.22-.1h.29l-.44-.37a.66.66,0,0,1-.24-.05v-.14c.21-.2.37,0,.56.07l.21-.19c0-.25.1-.56-.1-.76l.13-.71-.26.15V483h.63c-.06-.15-.17-.21-.24-.3s.21-.26-.06-.41l.38-.17c-.27-.18-.21-.35-.22-.51-.05,0-.09,0-.16-.08l.57-.74-.26-.09.13-.19-.24-.47.84-.5-.37-.33a.46.46,0,0,0,.13-.18l-.17-.53-.19,0v-.38l.33.13.17-.14a1,1,0,0,1-.14-.3c0-.15-.05-.33.11-.44-.14-.11-.11-.19,0-.36s0-.35,0-.55h.16v-.39l-.33.13,0-.18a1.15,1.15,0,0,0,.29-.09l-.37-.27.12-.23-.28-.14.22-.28v-.35l-.17.14-.18-.24-.08.11-.05,0,.11-.08c.07-.14.15-.27.21-.41s.11-.28.37-.23l-.5-.61.37-.45a1.78,1.78,0,0,1-.33-.05l.28-.22-.17-.27.26-.48-.24-.17v-.2l-.22-.07-.14-.64.12-.28-.07-.05-.33.28v-.39h.19l.14-.27a1.56,1.56,0,0,0-.08-.44c0-.14-.08-.11-.12-.16a1.11,1.11,0,0,1,.34-.68l-.14-.34.36.18a1.72,1.72,0,0,1,.07-.21l.12-.14c-.28-.06-.29-.38-.51-.51s-.38-.28-.56-.42l-.15.12-.08-.22-.36-.1a.94.94,0,0,1,.06-.15c.1-.09.32.09.34-.15h-.35c-.08-.29.18-.33.27-.49l.44.25.06.39.46-.2v-.28c.21-.15.43-.31.65-.49l-.39-.2h-.68a1,1,0,0,0,.35-.42.89.89,0,0,0,.08-.53,1.07,1.07,0,0,0,.39-.05l-.27-.33h.64l.5-.35c-.35-.09-.49-.38-.65-.75l.28-.15v-.78h.38a1.3,1.3,0,0,0-.18-.23c-.15-.12-.32-.21-.52-.35l.48-.52c-.21,0-.35-.09-.57-.09a1.43,1.43,0,0,1-.5-.18v-.48h-.3l-.26-.26-.2-.64h-.37l.21-.42-.19-.28a1.53,1.53,0,0,0-.28.29,4,4,0,0,0-.15.45l-.23-.22.25-.26c-.17-.05-.34-.12-.57-.18l.17-.21a1.77,1.77,0,0,1-.4-.08l.19-.56.15.13.08-.22c.16-.13.48.12.56-.34v-.45h-.49c.09-.26.31-.2.45-.27a2.23,2.23,0,0,0,.42-.39l.23.17.22-.34c.21-.07.43-.16.68-.26.17.09.17.09.36,0l.08.23s0,0,0,0l.43-.18-.27-.29.21-.28,0,.06.35-.33-.21-.21c0-.32.43-.19.49-.51l-.1-.38-.2-.39.19-.21.53.12-.15-.39a.49.49,0,0,0,.19,0l.07.36h.3v-.06c-.4-.49-.42-.53-.23-1.12a.76.76,0,0,1-.21-.05l-.06.55-.2-.19a2,2,0,0,0,.1-.21.89.89,0,0,0,0-.23,1.09,1.09,0,0,0,.23-.06V451.2c-.14,0-.3,0-.47,0v-.37a2.15,2.15,0,0,0,.34-.05c0-.24.07-.45-.17-.59l-.14.12c-.16-.31.13-.47.17-.73a.05.05,0,0,1,0-.06,9.55,9.55,0,0,0-.16-1.18s.07-.1.11-.15l.05.24h.08v-.24H45.8l-.1-.2.15-.3.15.14.07-.24h-.46l-.24-.29-.21.26-.21-.16.08-.44H45l-.27.4c0-.23-.1-.42.14-.62l-.38-.36c.45-.08.77-.48,1.22-.64h-.41l-.21-.38.15-.44-.3-.24c.17-.34.17-.34,0-.69l.39-.23-.1-.4.19-.33-.1-.1.13-.24-.29-.32.18-.34-.32-.1.32-.24.51-.89a1.19,1.19,0,0,1-.35-.56c-.06-.19-.4-.25-.3-.56l-.39-.25v-.33c.25-.14.22-.39.29-.61a2.46,2.46,0,0,0,.36-.06l-.15-.17a.82.82,0,0,0,.19-.06l.16.34,0-.63.32-.22-.33-.16c.21-.14.24-.44.51-.55a1.17,1.17,0,0,0,0-.2,3.07,3.07,0,0,0-.31.17.87.87,0,0,0-.14-.41l.12,0s-.08,0-.1,0a.59.59,0,0,0,.35-.23l-.74-.21v-.34l.28.14c-.17-.4-.2-.76-.57-1.07v.5c-.25.09-.42,0-.63-.23l.12,0c.18,0,.16-.08.1-.17l-.08-.13a1.09,1.09,0,0,0,.25,0v-.09h-.25v.1c-.21,0-.13-.19-.11-.28a1.74,1.74,0,0,0-.13-.78l.14-.16L44.2,433l-.49.15-.27-.55-.13.33-.39-.25c.39-.3.35-.88.92-1l.1.09c.21-.19,0-.7-.46-.95l.11-.26-.33-.63.3-.22-.31-.11v-.23l.17.15.13-.14c-.11-.3-.11-.3-.3-.41v-.31l.38.15-.17-.34.34-.16a3.54,3.54,0,0,1-.53-.06,2.79,2.79,0,0,0-.22-.61h.05c.07,0,.12,0,.12-.07a.88.88,0,0,1,.09-.48,1,1,0,0,1,.32-.38,2.55,2.55,0,0,1-.42-.08l.32-1h.14l-.17-1.15.29-.21c-.22-.16-.12-.56-.52-.46v-.45l.33-.16.24,1a.92.92,0,0,0,0-.52.88.88,0,0,0-.27-.44h0v-.12c0-.05.11-.1.1-.15a1.48,1.48,0,0,0-.13-.35H43l.52-.33a2.07,2.07,0,0,1-.41-.07l.11-.13-.37-.78L43,421l-.25-.11-.19-.56.28-.11v-.77l.24-.05-.12-.15.32-.19-.49-.35.4-.63-.12-.13-.44.1c-.11-.28-.07-.59-.42-.68V417h.24a3.74,3.74,0,0,0,.12-.45,2.09,2.09,0,0,0,0-.5l.28-.1-.14-.49.17-.27-.31-.1.07-.43-.56-.17-.06.38-.17-.1c-.07.07-.17.15-.33.28l.09-.56-.13-.24-.33.18c-.08.12.16.47-.29.56l-.35-.3.34-.17.14.11.06-.21a2.18,2.18,0,0,1-.4-.08v-.22c.23-.05.1-.21.1-.35h-.32l-.06-.38H40l-.18-.35a2.8,2.8,0,0,0,.4-.08l-.22-.19-.41.22-.05-.3-.38-.23.15-.16-.54-.16.68-.3c-.2-.33-.2-.33-.63-.38-.09-.24.08-.21.23-.21l.09.1,0,0-.11-.08-.1-.56a1.77,1.77,0,0,1,.12-.17l-.14-.24a1.13,1.13,0,0,0,.24,0c.13,0-.13-.33.13-.35v-.56l-.2-.21-.17.29c-.08-.06-.13-.07-.13-.09l-.13-.56.1-.09,0,0-.08.1-.16-.2a.8.8,0,0,0,.23,0l-.09-.84-.33-.22-.11-.41.12,0,.47-.76-.11-.16.11-.09,0,0-.09.11-.36.09c-.12-.22.16-.27.23-.41-.21-.16-.15-.33,0-.51l-.16-.16-.25.13c-.2-.24,0-.39.07-.56a1.82,1.82,0,0,1-.28-.13v-.16a1.46,1.46,0,0,0,.35,0l.06.37h.06l.06-.35a1.77,1.77,0,0,0,.32-.05c.1-.21,0-.26-.23-.21l.09-.49a1.16,1.16,0,0,0-.2-.32.33.33,0,0,1-.11-.15.37.37,0,0,1,0-.18l.38-.3c-.86-.83-.86-.83-.94-1.18-.14,0,0,.27-.26.24-.08,0-.18.16-.25.22h-.48l.14-.16-.22-.23.12-.68.22-.08a.77.77,0,0,0-.07-.39.9.9,0,0,0-.23-.32l.37-.37L37,399.6l.18-.56-.34-.39.27-.13.18-.51-.14-.15.23-.07c.06-.23.09-.44-.15-.59l-.35.2.3-.66-.11-.15.12-.4-.39.2.08-.33-.41-.35-.12.49a2,2,0,0,1-.07-.69c-.22,0-.07-.2,0-.18l-.57-.55-.41-.12-.46.24.08-.39-.15-.45-.14-.56-.45.11v-.33l-.31.14-.2-.44-.1.1v-.43l-.56-.31A1.29,1.29,0,0,1,33,392l.12-.39-.12-.14.14-.17a1.8,1.8,0,0,1-.39,0l.13.3c-.12.12-.14,0-.2,0s-.12,0-.18,0l-.22-.11-.1.11-.22-.41-.2.06.3-.4-.16-.56-.46-.34.33-.15v-.42l-.28-.12.57-.3.09.11,0-.05-.11-.08-.15-.23-.33.13c0-.1,0-.19,0-.21a.26.26,0,0,0,.11-.14.28.28,0,0,0,0-.18l.1-.08,0,0-.09.1h-.23l.27-.55-.51-.23.21-.6-.22-.43.09-.1-.18-.35-.26.13-.16-.17c-.13-.53.16-1,.14-1.6l.29-.73,1.33-.74H32c0-.09.06-.24-.13-.25v-.21l-.36.08a2.16,2.16,0,0,1-.36,0l.29-.89.17-.15c-.26-.26-.57-.2-.91-.21l-.52-.31.17-.28-.25-.15c.05-.16.23-.31.07-.49s.21-.3-.05-.45c-.1-.06-.12-.28-.14-.43a.69.69,0,0,1,0-.35,2,2,0,0,1,.11-.44l-.27-.29.13-.13-.28-.11.17-.66c.81-.34.81-.34.81-.66l-.14.12s-.06-.06-.06-.09a3.17,3.17,0,0,0,.12-.44,7.28,7.28,0,0,1,.2-2.23h.3v-.4l-.39.15v-.24a.32.32,0,0,1-.23-.05.3.3,0,0,1-.15-.18c0-.07-.11-.11-.25-.12l.13.41-.32.16a.06.06,0,0,1-.06-.05l-.12-.63-.61-.11-.22.33c-.13-.15,0-.39.33-.61l-.12-.22.19-.45.35-.28c-.2-.25-.53-.41-.41-.81l.16.11.25-.18-.68-.56.27-.38-.05-.07a1.06,1.06,0,0,1-.21.11h-.32l-.32-.48.83-.2-.09-.33.11,0-.11-.08-.44-.37-.16.14-.21-.42.29.14v-.3l-.41-.4.18-.56L28,367v-.61h-.08l-.08.63c-.16-.33-.56-.42-.6-.85a2.11,2.11,0,0,1,.45.09l.17-.34-.31-.15c-.19.22-.44.05-.68.11,0-.37.23-.39.46-.4.05-.19.28-.35.1-.63l-.26.13c-.05,0-.11-.07-.18-.1l.13-.42.19.15.13-.11h.14c.09-.16,0-.46.34-.5l.39.58a.46.46,0,0,0,.06-.28.56.56,0,0,0-.1-.28.83.83,0,0,1,.28-.21,1,1,0,0,1,.34-.09l.09.1,0,0-.1-.09v-.36L28.5,363l.3-.1-.43-.43.15-.21-.14-.07.28-.13-.15-.3.11-.09,0,0-.09.1h-.33c.18-.22.12-.47.32-.62v.25l.24,0v-.21h-.24v-.31l.4-.2.23.15v-.24l.11-.09,0,0-.09.1-.42-.32a2.21,2.21,0,0,0,.4-.07v-.24l-.18.15-.06-.24-.3.13a.61.61,0,0,1-.06-.35.7.7,0,0,1,.12-.34,2.21,2.21,0,0,1-.32.12c-.1,0-.33-.11-.52-.18l-.15.13-.35-.91-.11.25c-.44-.31-.29-.79-.34-1.26l-.35.09s-.15-.08-.28-.13l0-.18.26.12s.1-.06.09-.08c0-.38-.09-.76-.14-1.15a1,1,0,0,0-.22-.13,3.5,3.5,0,0,1-.13-.56v-.6l.62-.28v-.63l.77-.75v-.25l.26-.19h-.2l-.16-.49c0-.22.38-.33.36-.64l-.22-.27-.07.39h-.07v-.58l.14.1.81-.48.07-.33.31-.14.12.24c.27-.19.27-.19.42-.59l0,0-.14.1c-.19-.23-.46-.07-.7-.12a.52.52,0,0,1,.08-.41s-.05-.19-.08-.29a1.46,1.46,0,0,1-.12-.39,3.14,3.14,0,0,1,.12-.51l-.35-.65a1.72,1.72,0,0,0-.25.11l0-.4-.45-.33.12-.61.29.16c-.17-.26-.14-.45-.39-.56s-.15-.37-.21-.56l-.37-.2v-1l-.31.61c-.12-.23-.28-.44-.15-.74h.64a2.07,2.07,0,0,0-.06-.61.37.37,0,0,1,0-.45l-.16-.48-.27.15-.08-.22h0c-.1.07,0,.34-.31.2v-.33c.27,0,.27,0,.19-.25H26l-.78-.87v-.38l-.44.23-.07-.19-.21-.09.22-.4-.09-.1.33-.49.21.3.17-.17v-.08c-.12-.14-.12-.37-.4-.41s-.19-.27-.21-.45a.85.85,0,0,1-.27-.09l.16-.29a1.18,1.18,0,0,1-.29-.16.92.92,0,0,1-.18-.3l.2-.38c-.15-.1-.1-.28-.11-.43h.26v-.24h-.21v.23s-.08,0-.16.1l0-.1a.44.44,0,0,0-.08-.25l.28-.38-.09-.65.11-.66-.43-.32h-.19l-.18-.56.17-.42H24l-.27.52c.3-.11.68-.09.86-.55l-.39.19a1.66,1.66,0,0,0-.11-.38.84.84,0,0,1-.17-.4l.16.11c.15-.19,0-.26-.14-.36l-.15.13-.17-.51.11,0-.11-.09-.14-.55a3.45,3.45,0,0,1,.52.07l.09.1,0,0-.1-.09-.25-.34v-.32l.1-.09,0,0-.08.1s-.12-.11-.11-.14a3.13,3.13,0,0,0,.14-.81s.07-.08.11-.12l-.17-.51-.34.09v-.41l.61.16v-.21l-.56-.21-.3.56h-.23v-.72l.11.27.42-.42h-.14l.09-.34.09-.37s-.12-.1-.21-.18l.14-.21-.21-.26-.1.1-.48-.15c.09-.19.09-.19.35-.22,0,0,.05-.09,0-.11a.34.34,0,0,1-.1-.16.57.57,0,0,1,0-.18.64.64,0,0,1,.06-.18.4.4,0,0,1,.13-.13l-.3-.24-.27.15-.33-.75h.57l-.1-.36c0-.08-.09-.17-.14-.29l.39-.6v-.31l.41-.41-.19-.31.41-.4,0-.31a1,1,0,0,0,.22,0c-.29-.42-.24-1-.57-1.33l-.25.23c-.29.08-.4-.17-.56-.31v-.65a2.7,2.7,0,0,1-.36-.06v-.22l.26.12c.29-.25.29-.25.13-.56l.25-.19h.27l-.05-.26-.22.13v-.17l1-.42.1.1.09-.24.2.1c0-.35.13-.56.51-.51v-.44l.24-.11v-.06l-.57.09c-.09,0,.07-.47-.31-.35.05-.26.16-.38.38-.37s.27.34.53.26l.08.1,0,0-.1-.09a.71.71,0,0,0-.21-.67l.43-.2-.45-.33c-.1-.2-.31-.48.06-.82l.17.31c.08-.07.13-.09.13-.12a2.56,2.56,0,0,1,.17-.9l.36.17-.15-.56.1-.09,0,0-.09.11c-.29.05-.35-.26-.56-.35l-.13.1-.25-.31.13-.65.11.46.17-.14,0,.26.32.37.17-.17v-.39c.33-.22.19.29.48.17l.05-.31c-.49-.11-.6-.56-.93-.9h.33l.27-.62.09.48h.21a1.76,1.76,0,0,1-.11-.88l.1-.09,0,0-.09.1-.35.42-.51-.24.49-.09-.41-.27.5-.24-.49-.38.08-.09-.45-.45v-.78a.16.16,0,0,1,.12.09,2.56,2.56,0,0,0,.05.55,2.76,2.76,0,0,0,.08-.86l.1-.09,0,0-.09.1c-.2,0-.09-.19-.13-.32l.26-.19v-.56l-.24-.26c.19-.14.1-.33.11-.52a.39.39,0,0,1-.21,0c-.14-.29.11-.49.22-.72l-.16-.44.36-.18.13.11.2-.32c-.16-.09-.31.25-.41-.08l.27-.23c.24-.14,0-.56.46-.56l-.22-.27c0-.38.37-.56.63-.72v-.26l-.37-.23.47-.41c-.08-.3-.4-.13-.61-.21.17-.29.57-.35.63-.7l-.36-.05.2-.34.11.26.26-.39.13.13,0-.32.17.12-.16-.29c.08-.05.17-.13.32-.22l-.29-.07,0-.34a1.66,1.66,0,0,1,.56-.25c.33,0,.36-.22.36-.47a.84.84,0,0,1,.31,0,.85.85,0,0,1,.31.09c0-.35-.35-.28-.48-.51V299l.17.13c.12-.07.09-.35-.05-.61,0-.08.1-.17.15-.25.38.19.19.46,0,.72H28c.05,0,.18-.16.18-.24,0-.27.14-.39.42-.41l-.26-.26.17-.35.18.38v-.69h.59l-.24-.29-.25.16-.28-.36c0-.11-.14-.34.1-.5l.09.1s0,0,0,0l-.1-.08.15-.52L29,296l.18-.36a.3.3,0,0,1-.19,0l-.21-1-.41.09-.54-.8.09-.08s-.08-.05-.11-.07l-.22-.1.48-.4-.14-.19.36-.34v-.48l-.22.16-.25-.16v-.59a1,1,0,0,0,.34,0l-.14-.32a1.58,1.58,0,0,0,.37-.06,17.29,17.29,0,0,1-.83-1.67c-.08-.21-.37-.31-.27-.56l.1-.09,0,0-.09.1H27c.14-.19-.09-.36,0-.55a1.6,1.6,0,0,0,.19-.07l.17-.51-.16-.23.36-.29-.12-.43H27.2c-.18-.27-.52-.39-.67-.62l-.28-1.18.18-.36.08.42h.07v-.47L26,284.2l.41-.67-.47.09.16-.55L26,283a.58.58,0,0,1-.05.14c-.06.07-.11.14-.17.2h-.86l.23-.28-.34-.33c.05-.28.33-.21.49-.29l-.11-.21-.41-.19.17-.35-.43-.31.16-.43-.8-.56.16-.28a4.91,4.91,0,0,1,.5-.17v-.32a3.76,3.76,0,0,1-.45-.06l.31-.14-.09-.16c.25-.14.28.17.5.2L24.7,279a.28.28,0,0,0,.18,0,4.08,4.08,0,0,0,.44-.28v-.34h-.24l-.12-.2.1-.11L25,278l.3-.18c.06,0,.12.06.17.1l.06-.07-.19-.29c-.17.06-.22.33-.48.2l.14-.16-.38-.25.26-.25-.52-.09c0-.32.21-.36.43-.34l.23-.35.29.16.08-.25.38.09c0-.35-.25-.41-.5-.37l-.13-.53s-.22-.06-.26-.17a.43.43,0,0,0-.11-.2.48.48,0,0,0-.22-.12l-.12.26c-.21-.24.08-.56-.18-.79.2-.25.07-.56.12-.87l-.22.16-.13-.23.13-.19-.51-.33-.11.3-.22-.34c0-.08.14-.23.06-.44s.13-.39.22-.56l.36-.62-.48.18-.39-.49.08-.67h-.2v-.12L23,270l0,0-.09.1-.12.13-.13-.07c0-.36.44-.33.56-.71l-.33.18a1.86,1.86,0,0,0-.25-.22c.07-.21.17-.34.4-.31,0,0-.06-.12-.1-.12h-.56l.23-.5h.2l-.26-.2v-.14a2.45,2.45,0,0,0,.42-.07l-.16-.33.1-.09,0,0-.09.1c-.11,0-.26,0-.31,0-.32.32-.61,0-.91,0-.06,0-.17-.16-.17-.23,0-.38-.26-.35-.49-.41,0-.09.1-.17.1-.25s-.16-.38-.11-.5a1,1,0,0,0,.11-.46v-.19a.72.72,0,0,0,.24-.42.68.68,0,0,0-.1-.48c.24-.27.06-.6.11-.89,0-.05,0-.1-.12-.15v.74H20.6c.27-.29,0-.56,0-.82a1.11,1.11,0,0,0-.36-.7l.14-.47.12.1.57-.46-.13-.26.21-.13.08.22h0c.14-.27.49-.44.4-.87l-.17.13a.81.81,0,0,1-.7-.89.49.49,0,0,0-.06-.29.47.47,0,0,0-.23-.21c-.17-.08-.26-.32-.4-.5l-.12.3-.2-.23c.05-.21.16-.33.38-.31v-.42c-.12-.16-.4-.1-.49-.31l.1-.1,0,0-.08.1c-.24,0-.07-.24-.15-.33l-.41.1-.2-.2.25-.19h-.23l-.05-.5h-.22a.65.65,0,0,0-.08-.41.59.59,0,0,0-.33-.27l.09-.56-.15,0-.08-.22c-.1,0-.22,0-.38-.05l.14-.31c-.14,0-.29,0-.44,0l-.18-.35h.26v-.25l.28-.38-.25-.22a.51.51,0,0,0,.09-.27.53.53,0,0,0,0-.28l-.19.19.14.36,0,0h-.44l-.21.36-.23-.62c.13-.27.13-.27.08-.93l-.14.32a1.26,1.26,0,0,0-.84-.38c0-.26-.3,0-.37-.2l.27-.13-.16-.31.48-.43-.34-.21a1.29,1.29,0,0,1,.1-.85,1,1,0,0,0-.24.09,6.58,6.58,0,0,1-.54.38c-.09.05-.22,0-.35,0,0-.41.56-.34.63-.72a1.23,1.23,0,0,1-.86-.18c.17-.12.11-.29.11-.45.21-.19.56-.21.68-.64l-.32.17-.31-.4h-.43l.16-.17.17.16c0-.06.07-.15,0-.16l-1-.79v-.18l.22-.14.21.13,0-.18-.54-.2.4-.49-.34.08-.24-.1-.2-1h-.29c0-.29-.32-.28-.44-.46V245l-.45-.29c-.12-.4.08-.82-.15-1.21l.49-.46a.43.43,0,0,1-.15-.24.38.38,0,0,1,0-.27,2.05,2.05,0,0,0,.22-1.17h.38v-.29c.27-.31.68-.14,1.06-.24l-.79-1.06-.13.24-.53-.28.17-.3-.26-.08-.12-.62.44-.16-.47-.33h-.44l.35-.2c-.17-.22-.26-.35,0-.49l-.57-.42.35-.4-.09-.56-.32-.33.79-.4-.45-.23a1,1,0,0,1-.34-.24,1,1,0,0,1-.2-.37l.27.15v-.33l-.22-.07V234l-.56-.26.2-.39-.25-.09c-.05-.05.11-.27.3-.38l.17-.74-.35.13-.07-.38-.35.14v-.37h.35l-.35-.25L9.84,231l.2-.08-.7-1.18.27-.1-.27-.18.13-.44c-.62-.3-.33-.83-.41-1.25l.42-.25-.57-.42v-.14l.57.13c-.24-.23-.37-.5-.57-.67l.09-.34.17-.14-.45-.29.22-.18.12.1.22-.42-.36-.82c.05-.08.27-.16.22-.32l-.56-.56.13-.47-.18-.16-.18-.93.25.22,0-.49.23-.16A1,1,0,0,1,9,220.8l.1-.05-.1-.08-.32-.5.83.31c0-.23-.22-.26-.25-.46l.11-.19a1,1,0,0,1-.24-.08v-.42l-.21-.05c0-.25.21-.56,0-.76l.3-.87.1-.11.23.29-.37.18a3.24,3.24,0,0,1,.46.05v-.63l.11-.14.12-.09.09.1,0,0-.1-.09c0-.33-.24-.42-.47-.52l.11-.41.4-.25c-.1,0-.15-.07-.2-.06L9,216.2a2.51,2.51,0,0,1,0-.27l.09-.38c-.36-.44-.44-.75-.3-1l-.15-.45-.44-.19c0-.12-.13-.29.1-.34l.09.1,0,0-.1-.08.09-.34L8.34,213l.57-.26-.11-.13.46-.41.13.12,0-.34.35-.21-.42-.16a2.31,2.31,0,0,0,.29-.12V211l.33-.15.1.25.27-.14.22-.89.36.32a2.61,2.61,0,0,1-.14-.55,2.15,2.15,0,0,1,.12-.5l.47-.33c0-.25-.35-.31-.27-.56l.11-.09-.05,0-.08.1-.28-.37.15-.16-.24-.43V206.3l.26-.13-.25-.76.52.14a1,1,0,0,0-.1-.26c-.2,0-.15-.14-.19-.24-.22-.08-.4.3-.64,0,.19-.22.48-.31.69-.5s.52,0,.63-.28a.53.53,0,0,0-.56,0l-.54-.27-.42.15-.06-.08.32,0-.12-.14h.85l-.32-.2.06-.55H10.2l.14-.35-.17,0-.15.33-.24-.32s-.11,0-.21.11v0c.08-.2.1-.3.14-.41l-.16-.16-.11.24-.31-.44.28-1.11a.18.18,0,0,0,.1,0l.13-.07c-.06-.1-.1-.2-.16-.3a4.43,4.43,0,0,0,.64-1.67.63.63,0,0,1,.08-.23l-.49-.37c.22-.16.27-.44.53-.55-.09-.22-.26-.45-.24-.65s-.38-.36-.27-.65c.17-.13.17-.25,0-.37l.11-.2a4.42,4.42,0,0,0-.47-.15l-.06.56-.23-.67a2.21,2.21,0,0,0,.34-.06l.2-.39-.27-.29.63-.61-.06,0,.32-.56.1-.09,0,0-.09.1a2,2,0,0,0-.18-.23s-.14,0-.17-.06-.15.05-.27,0l.15-.52a1,1,0,0,0-.65-.32,3,3,0,0,1,.09-1.12,2.93,2.93,0,0,0-.45.07l-.1-.23-.27.15s-.06-.14,0-.16.33-.27.49-.4v-.22c-.11-.12-.1.08-.25,0,0,0,0,0-.06,0s-.06.06-.11.1L8,190.35l0-.08.34.1V190a1,1,0,0,1-.23,0,1.36,1.36,0,0,0-.06-.33.34.34,0,0,1,0-.28l.38.46c0-.16.26-.31.14-.55l-.18.11c-.25-.17-.25-.17-.29-.47a2.29,2.29,0,0,0,.4-.06.29.29,0,0,0-.08-.21l-.6-.16.18-.4-.51-.19v-.56l.3-.32.16.33v-.63c.41-.24.35-.68.51-1a.31.31,0,0,1-.18,0l-.08.23h0l-.08-.32-.26-.27.18-.81.31.48v-.78l.43-.27c-.34-.45-.25-1.07-.73-1.48.05,0,.09-.05.15-.07l.22.35.38-.47H9l.61-.69v-.27H9.52l-.12.27-.08-.19-.49-.11c0-.34.29-.62.24-1l-.2.15-.2-.25.56-.71-.05-.06-.68.31.05-.4-.1-.19.28-.14-.13-.13.61-.21V178l-.12.35-.63.13a1.22,1.22,0,0,0-.12-.33c.12-.12.37,0,.38-.3l-.56.08L8,177.58l.22-.11v-.39l.32-.5-.18-.33.4.16.06-.22-.28-.11.29-.32-.16-.2.47-.21.19-.85L9,174l-.08.22H8.59c0-.07-.05-.12,0-.14.15-.25.39-.44.38-.78,0-.09.16-.18.23-.25s-.09-.18-.19-.38l.46.19-.18.33a3.13,3.13,0,0,1,.43,0l-.18-.4.41.11.24-.3-.67-.06-.2-.76-.41.17-.21-.6.36-.65.52-.28V170H9.47c-.13.14-.25.29-.37.43-.16-.26.08-.47.12-.71h.46v-.32l-.22-.21.14-.29,1-.18v-.48h.3l.52-.62c.11-.31-.46-.43-.2-.76L12,167c.16-.17.4-.3.43-.47s.39-.16.39-.56l-.11-.3.14-.2-.15-.28.57-.45-.45-.07.21-.65.39.29.18-.18-.21-.09c-.1-.19-.28-.4-.12-.73l.32.13v-.37h-.31a2,2,0,0,1,.11-.77l.35.16.18-.12.12.11c.14-.32.61-.44.57-.88l.11-.08,0,0-.1.1,0,0-.14.09-.17-.15-.35.28-.22-.56.25-.19.13.11.11-.27.11.25.57-.4v-.3c-.17-.28-.62-.36-.64-.85l.35.13.16-.16c.09-.24-.39-.29-.2-.56l.15.13a.63.63,0,0,0,.06-.33.57.57,0,0,0-.15-.3c.23-.16,0-.56.38-.63,0-.2.09-.38-.08-.52l.2-.56-.13-.14a1.92,1.92,0,0,0,.57-.29c.18-.2.41,0,.57-.17l-.12-.13.45-.3.25.24.12-.56a4.09,4.09,0,0,0,2-1,.9.9,0,0,1-.44-.46.49.49,0,0,1,.11-.14l.08.1,0,0-.1-.08-.15-.52.3-.34-.14-.24.28-.14.16.07c.13-.1.38-.08.44-.33l-.2-.25-.2.19.11-.42-.33-.21c.15-.3.41-.55.36-.93l.39-.26h-.13l-.19-.94.36-.24-.27-.12.3-.62-.31-.14.26-.07a.93.93,0,0,1,0-.24.91.91,0,0,1,.15-.23l-.27-.38.23-.33-.12-.12a.59.59,0,0,0,.2-.12.65.65,0,0,0,.15-.18c.07-.11.27-.13.41-.19l-.14-.15.22-.46a1.45,1.45,0,0,0-.39.3l-.18-.19v-.34a2.52,2.52,0,0,1,.21-.25l.29.16.38-.26c.14.24.33.11.57.09l-.45-.34-.27-.68.12-.09-.09-.35.19.12.24-.29-.33-.14.15-.37s-.09,0-.13-.07l-.24-.61h.31l.15.31,0-.38c.18-.17.39-.35.59-.56l.09.08.28-.33c-.09,0-.21,0-.35-.07l.14-.16-.74-.35-.12-.28c.09-.27.36-.14.56-.19a1.59,1.59,0,0,1,.08-.33c.05-.09.16-.13.33-.27H21a2.13,2.13,0,0,1,.49-1.74l-.17-.88h0l-.07.66-.22-.42.21-.46a2.22,2.22,0,0,1-.29.2l-.08-.49h-.6v-.49h-.08l-.09.36-.34-.25.16-.26-.76.23s-.09-.08-.18-.18a3.73,3.73,0,0,0,.56-.07l-.17-.32c.3-.06.71.05.82-.39h.35c0-.11-.05-.21-.09-.23a2,2,0,0,0-.41-.08l-.17.29c-.06-.12-.13-.24-.2-.36s-.14-.14-.27-.28l.36-.15.12.07v-.23l.34.13.06-.38c.11,0,.23,0,.41,0l-.43-.29,0,0-.25-.13.14.42a1.09,1.09,0,0,1-.44,0l-.09.22h-.21V134l-.18.15c-.19-.06.06-.35-.2-.36l-.13-.13c0-.19-.16-.11-.22-.1a5.47,5.47,0,0,1-.13-.55l.38-.28-.24-.48-.25.3L18,132l.34-.12a2,2,0,0,1,.43-.07,2.14,2.14,0,0,1,.39.16l.05-.23-.85-.24.43-.44.06.34h.29c0-.37-.36-.55-.49-.84l-.29.42a7.26,7.26,0,0,1-.06-.93h.27v-.38a.52.52,0,0,0-.25,0v-.23l-.48-.21.91-.74c-.07-.22-.14,0-.19,0s-.14-.11-.2-.11-.19.07-.29.08-.11,0-.17-.07a.72.72,0,0,0,0,.5h-.09c-.16,0-.26,0-.27-.08a.56.56,0,0,0-.22-.24.5.5,0,0,0-.32-.08v-.4l.18.12h.15v-.34c-.08,0-.19,0-.36,0l.41-1,.11-.09,0,0-.09.1H17l-.07.38-.22-.12v-.56l.36-.05v-.25l-.21.18v-.48l.24-.09v-.48h-.31l-.19-.55a2.66,2.66,0,0,0,.37-.07.57.57,0,0,0,0-.29.66.66,0,0,0-.12-.27c.22-.18.09-.35,0-.55l.3-.33-.15-.48-.15-.5.3-.11L17,122l.31-.35-.19-.32a.15.15,0,0,1,0-.08l.08.06.38-.32-.35.11v-.26c0-.17.11-.33,0-.52s.15-.26,0-.46.16-.29.24-.48c-.46-.07-.67.4-1.08.43l-.34-.36.24-.23c.12-.12.35-.09.42-.36l-.13-.24-.37-.25v-.49h.25l.2.24a.87.87,0,0,1,.12-.63l.1-.09,0,0-.09.1h-.29l-.12-.25-.16.15v-.52h.19l.23.56a.38.38,0,0,0-.2-.56l.13-.59a2.06,2.06,0,0,1-.38-.07V116l.19.17.12-.24h-.34l-.16.33v-.4l-.38-.23V115a.11.11,0,0,0,.11-.05l-.11-.08v-.2a1,1,0,0,1-.27-.09l.41-.4c0-.32-.5-.37-.36-.79l.31-.29v-.61c.24,0,.1-.21.11-.33a.78.78,0,0,1,.16-.46.76.76,0,0,1,.41-.27l-.45-.08.29-.34H15.6l.19-.24.13.11,0,0s-.08-.06-.11-.09l-.21-.17a.81.81,0,0,1,1.14-.09c.24-.33-.15-.56-.16-.9l-.53.61-.3-.51.25-.12c.09-.29,0-.5.17-.63l-.37-.24.2-.29c-.2-.17-.5-.3-.57-.49s-.5-.13-.28-.56c0,0-.08-.31.19-.27l.34-1.36h-.85c.32-.44.22-1,.71-1.34a3.48,3.48,0,0,1-.6-.06s-.05-.1,0-.11c.17-.21.1-.46.12-.7s0-.47.09-.77l-.09-.13a1.11,1.11,0,0,0,.36,0v-.26l-.2.15-.29-.39v-.55l.28-.24.13.3s.08,0,.08,0l-.09-.84.45-.8-.24-.12.38-.61c.12-.08.33-.22.53-.37v-.15l-.44.21-.2-.13-.27.4c-.3-.13-.2-.37-.22-.56l.27-.26-.28-.09.15-.16.18-.17.24.37.08,0-.17-.49-.43.1a1.7,1.7,0,0,1-.3-.14l.37-.26a.89.89,0,0,1,.07-.28c0-.08.15-.13.26-.21l-.32-.12c.08-.07.14-.14.22-.2s.08,0,.16,0v.48l.11,0a.38.38,0,0,1,0-.28.38.38,0,0,1,.23-.18l.18.12.18-.22v.12l.26-.06-.05-.06h-.22c0-.09.06-.23-.13-.24,0-.19,0-.4-.22-.49L16,96a2.43,2.43,0,0,1-.38-.13c-.11-.06-.17-.18-.27-.24a1,1,0,0,0-1.05,0l-.23-.44.46-.3.28.12v-.12l-.29-.38-.27.25L14.1,94c.3-.15.25.09.33.19l.44-.67-.1-.13.13-.15c-.16,0-.3-.15-.34.08-.25-.11-.42-.22-.44-.49,0-.11-.15-.22-.24-.35l.64-.22-.1-.26.11-.21-.23-.26-.26.15-.11-.22.12-.25.19,0-.15-.32-.4.15.21-.45.18.16.45-.21-.34-.22.36-.16-.29-.4a.86.86,0,0,1,0-.32.67.67,0,0,1,.13-.3l-.12-.15.23-.2,0-.33L15,89l.31-.44a.23.23,0,0,0-.26,0v-.06c.08-.22.12-.33.16-.47l-.23-.43.07-.06c0-.12-.06-.24-.38-.26a6.41,6.41,0,0,0,.67-.28c0-.31-.24-.32-.51-.34.06-.33.14-.64.18-1a1.8,1.8,0,0,0-.2-.85H15l.13.25c.2-.24-.12-.38-.07-.56a4.25,4.25,0,0,1,.21-.49c-.28-.31-.28-.31-.91-.45l-.51.67a1.17,1.17,0,0,1,.14-.71,1.2,1.2,0,0,1,.53-.49l.1-.59-.43-.19-.1-.26-.07.56.21.2c-.15.16-.3.32-.43.49a5.86,5.86,0,0,0-.32.67l-.1-.34s-.09,0-.17.1L13,83.48a1.23,1.23,0,0,0-.26-.12c.23-.35.45,0,.66,0l-.14-.86h.42v-.28l.57-.43-.22-.3-.22.2-.29-.13.43-.44.25-.14.19.31.22-.8.22.16c.15-.1.32-.15.25-.33h-.61c0,.16-.13.34-.4.3v-.34a2.79,2.79,0,0,1-.38-.07v-.06h.47l.12.34.06-.56a2.24,2.24,0,0,1,.3-.12,3.12,3.12,0,0,1-.52-.07l-.18-.35.17-.35c-.2,0-1,.51-1.16.49l-.66-.21c.14,0-.08-.47.05-.44l-.24-.4c-.41-.11-.57.62-1,.49l-.37-.55v-.6l-.37-.24.1-.19.11-.08,0,0-.09.11H9.87l.15-.26-.24-.28-.06.4h-.2v-.75l.61-.22V76l.1-.09,0,0-.09.1c-.26,0-.34-.2-.52-.32l.24-.08v-.08A1.43,1.43,0,0,1,9.53,75a1.47,1.47,0,0,0,.28.14,1.41,1.41,0,0,0,.29,0V74.9a2,2,0,0,1-.4-.08l-.24-.48-.32-.73h.23v-.25c.18-.28-.37,0-.11-.24L9.1,73,9,72.55l-.52-.06.32-.23,0,0-.33.23.62-1.08H8.52l-.32-.12.29-.14a.94.94,0,0,0,.1.1v-.41L8.41,71l-.08-.51-.54,0,.13.33-.48.15-.05-.11-.08.11-.26.14.13-.39h.56l-.29-.38L7.32,70,7.57,70v-.07H7.33V70l-.4.19.13-.48c-.4-.26.34-.4.07-.75l-.5.1S6.54,69,6.48,69s.3-.13.19-.26-.13-.09-.33-.16c-.08-.28-.26-.52-.37-.45v.27c.12.07.25.12.37.18v.23l-.29,0c-.12-.26-.44-.32-.56-.56s.91-.56.8-.81l-.3,0-.26-.17c-.11.06-1.05.33-1.14.39A1.08,1.08,0,0,1,4.15,67c.27,0-.06-.3.2-.33v-.06l-.54,0-.23-.16.61-.58.18-.37.23-.17c-.07,0-.09-.28-.11-.24s-.39.41-.55.63l-.16-.19c.16,0,.17-.13.12-.19a.13.13,0,0,0-.24.06c-.19,0-.11-.15-.13-.25-.23,0-.32-.1-.4-.28.3-.09.3-.09.4.28.12-.17.07-.21.27-.28l.09.1,0,0-.1-.09s0-.13.1-.18-.18,0-.15,0l0-.15-.09-.15-.32.23L3,64.54l-.25-.22L3,64l-.35-.34.13-.18,0-.35.81-.39-.26-.13-.21.13-.05-.21a3,3,0,0,1-.37-.07v-.21l.41.1,0-.41v-.29L2.63,61l.09-.09-.11-.18.18-.41h.45c-.15,0,0-.07-.17-.08l-.32-.51.12-.22-.06,0-.24.15-.24.19-.16-.36a1.47,1.47,0,0,1,.17-.16l-.5-.18.78-.69a.59.59,0,0,0-.15-.27A.51.51,0,0,0,2.19,58l-.12.11c-.25,0,.72-.2.66-.34l-.53-.17L2,57.94l0-.39.31-.12c-.34,0,.33-.19.07-.42a.42.42,0,0,0,.24,0v-.08H2.37V57l-.1,0a2,2,0,0,1-.22-.21l.32-.17c-.12-.25-.12-.25-.37-.3l.11.2-.46.27-.08-.22a.9.9,0,0,1-.19,0v-.37l.17.14a.32.32,0,0,0,.06-.08A2.75,2.75,0,0,0,1.41,55c-.08-.26,0-.52.15-.45s.28-.12.43-.05a.73.73,0,0,0,.2-.1l.12.1.15-.11a.41.41,0,0,1,.19,0l-.26-.25V53.5a1.29,1.29,0,0,0,.72-.71V52l-.33.52v-.37L3.05,52c0-.27-.3-.5,0-.75l-.15-.7-.2-.19.08-.17s.07-.06.11-.09L2.8,50l-.08.11c-.26,0,0-.3-.24-.39L2.11,50v-.32l.56-.28h-.8l.28-.71-.32-.11c.14-.1.26-.19.38-.26L2,47.94l.23-.18.27-.18a1.93,1.93,0,0,1,.31-1.23c.11-.23.14-.49.45-.52l-.19-.56a.31.31,0,0,1-.19,0v-.1a3.57,3.57,0,0,0,.57,0l.16-.17-.11-.2-.2-.14.45-.36-.24-.33c.24-.09.57,0,.66-.38,0,0,.11,0,.17,0a.39.39,0,0,0,.2-.08.29.29,0,0,0,.1-.18s-.13-.07-.12-.1c.06-.23-.08-.41-.16-.61a.56.56,0,0,1,0-.6l-.1-.11.14-.29.69-.2,0-.18.33,0c-.08-.23-.43-.29-.36-.6l.1-.08,0,0-.09.1L4.28,40l.19-.14.08.1,0,0-.1-.08c0-.24-.23-.08-.35-.12s-.33.11-.44-.1c.07-.06.15-.09.15-.13A1.18,1.18,0,0,0,3.77,39a1,1,0,0,0-.3-.44v-.38L3.2,38,4,37.8c-.21-.22-.21-.22-.76-.22l-.35-.35V37c-.28-.1-.32-.43-.6-.6s-.3-.44-.46-.69H1.34a.6.6,0,0,1,0-.19,2.92,2.92,0,0,1,.14-.38L1,34.91l.16-.56.23-.08-.27-.13V34l.27.15L1.58,34a.09.09,0,0,0,0-.09L1,33.54l.32-.34v-.32l.57-.79L1.66,32l.08-.36-.37.18L1.5,32l-.22.47-.08-.56L1,32,.75,31.7l.44-.25c0-.16.09-.36-.12-.52l.22-.22.05.38a.85.85,0,0,1,.21.05l-.12-.45L2,30.25h.27V30H2v.22H1.68l.3-.44c-.32-.32.25-.65,0-1l.34-.17.12.1.19-.38c-.27,0-.57.35-.77-.1H2.6v-.63L2,28.06h-.4a1,1,0,0,1-.2-.3.8.8,0,0,1-.05-.34c0-.06-.08-.11-.12-.17,0,.26-.24,0-.32.17L.8,26.93l.48-.4-.15-.28h.26c0-.09.06-.23-.13-.2.09-.23.15-.43.38-.49v-.18l.1-.09,0,0-.09.1-.2.11-.18-.55.12-.14-.19-.21.56.16.05-.45-.29-.14.23-.46.43.16a.28.28,0,0,1,0-.18.27.27,0,0,1,.12-.14l.51-.31.17.1a9.62,9.62,0,0,1,1.53-1l-.32-.46.12-.63a.4.4,0,0,0-.24.05V20.7l.18.37L4.37,21l.21.19-.14-.5.36-.23-.3-.3-.43.12v-.38c.19-.11.36-.21.54-.3l.17.14.38-.43c.14-.15.43-.12.47-.42l.32,0,0-.22c-.23,0-.45-.11-.56.1l-.73-.17c.25-.06.46-.13.81-.23l-1-.24-.13-.46a1.12,1.12,0,0,0,.27,0l.39.38c.32.08.4-.18.64-.34H5.27l0-.45-.76-.31.12.32c-.1.1-.23.06-.5-.18l.07-.26-.51-.47c-.52,0-.65-.07-.9-.42.34-.11.49,0,.69.28h.86S4.36,16,4.4,16l.21.26c.33-.08.35-.43.56-.64l.09,0-.1-.11.13-.22a2.38,2.38,0,0,1-.37-.06v-.39c-.34-.39-.92-.56-1.09-1.11H3.55l.1-.43-.26-.22V12.5l.18-.17a.74.74,0,0,0,.13.12l.2-.38-.24-.42.16-.31c.26.21.56.09.82.08-.25-.09-.51-.15-.6-.4l.24-1.53.18-.13.19-.93-.43-.31a.62.62,0,0,0,.14-.18.54.54,0,0,0,0-.22.54.54,0,0,0-.16-.4c.2-.16.14-.39.15-.61-.28-.09-.05-.33-.16-.46S4.1,6.19,4,6.17V5.54a1.59,1.59,0,0,0,.22-.08V5l-.14.36a1.52,1.52,0,0,0-.33,0V4.84l-.31-.68L3,3.81c.28-.16.43-.4.69-.52s.16-.6.49-.73V2.13c.22-.12.41-.24.37-.51.47,0,.48-.38.57-.69S5.77.49,5.9,0H47.46Z" transform="translate(-0.52)" fill="white"/>
</svg>
